<svg width="129" height="37" viewBox="0 0 129 37" fill="none" xmlns="http://www.w3.org/2000/svg">
<g clip-path="url(#clip0)">
<path d="M8.46633 7.73671V35.865C8.46633 36.0369 8.6018 36.1744 8.77114 36.1744H14.6302C14.7995 36.1744 14.935 36.0369 14.935 35.865V7.73671C14.935 7.56478 15.0704 7.42724 15.2398 7.42724H23.0969C23.3001 7.42724 23.4356 7.22092 23.4017 7.04898L21.7084 1.30642C21.6745 1.16887 21.5391 1.1001 21.4036 1.1001H1.96384C1.82837 1.1001 1.72677 1.20326 1.65903 1.30642L-0.000455874 7.04898C-0.0681902 7.2553 0.101146 7.42724 0.304349 7.42724H8.16153C8.33086 7.42724 8.46633 7.56478 8.46633 7.73671ZM3.62333 4.74508L3.89427 3.71348C3.89427 3.67909 3.962 3.64471 3.99587 3.64471H19.3716C19.4054 3.64471 19.4732 3.67909 19.4732 3.71348L19.7441 4.74508C19.778 4.81385 19.7102 4.88263 19.6425 4.88263H12.3949C12.3272 4.88263 12.2933 4.91701 12.2933 4.98579V33.5611C12.2933 33.6298 12.2595 33.6642 12.1917 33.6642H11.2096C11.1418 33.6642 11.108 33.6298 11.108 33.5611V4.98579C11.108 4.91701 11.0741 4.88263 11.0064 4.88263H3.72493C3.6572 4.88263 3.58946 4.81385 3.62333 4.74508Z" fill="#F53C5A"/>
<path d="M37.1181 35.7965C37.152 35.9341 37.2875 36.0029 37.3891 36.0029H43.6883C43.8238 36.0029 43.9254 35.9341 43.9593 35.7965L54.7968 1.37553C54.8645 1.16921 54.729 0.962891 54.5258 0.962891H48.2265C48.0911 0.962891 47.9895 1.06605 47.9556 1.16921L40.6742 25.6181C40.6403 25.7213 40.5048 25.7213 40.471 25.6181L33.1895 1.16921C33.1557 1.03166 33.0202 0.962891 32.9186 0.962891H26.5854C26.3822 0.962891 26.2468 1.16921 26.3145 1.37553L37.1181 35.7965ZM29.7351 3.61066H30.7511C30.785 3.61066 30.8188 3.64505 30.8527 3.67943L39.963 32.461C39.963 32.4954 40.0307 32.5298 40.0646 32.5298H41.0467C41.0806 32.5298 41.1144 32.4954 41.1483 32.461L50.2586 3.67943C50.2586 3.64505 50.3263 3.61066 50.3602 3.61066H51.3762C51.4439 3.61066 51.5117 3.67943 51.4778 3.74821L42.0289 33.5958C42.0289 33.6302 41.9611 33.6646 41.9273 33.6646H39.184C39.1501 33.6646 39.0824 33.6302 39.0824 33.5958L29.6335 3.74821C29.6335 3.67943 29.6673 3.61066 29.7351 3.61066Z" fill="#F53C5A"/>
<path d="M64.0759 29.5381C64.0759 29.71 63.9405 29.8476 63.7711 29.8476H58.183C57.9798 29.8476 57.8444 30.0539 57.8782 30.2258L59.5377 35.934C59.5716 36.0716 59.7071 36.1403 59.8425 36.1403H74.7779C74.9134 36.1403 75.015 36.0372 75.0827 35.934L76.7422 30.2258C76.81 30.0195 76.6406 29.8476 76.4374 29.8476H70.8493C70.68 29.8476 70.5445 29.71 70.5445 29.5381V22.3857V7.737C70.5445 7.56506 70.68 7.42752 70.8493 7.42752H76.4374C76.6406 7.42752 76.7761 7.2212 76.7422 7.04926L75.0827 1.34109C75.0489 1.20354 74.9134 1.13477 74.7779 1.13477H59.8425C59.7071 1.13477 59.6055 1.23793 59.5377 1.34109L57.9121 7.04926C57.8444 7.25558 58.0137 7.42752 58.2169 7.42752H63.805C63.9743 7.42752 64.1098 7.56506 64.1098 7.737V9.35317V29.5381H64.0759ZM66.616 4.88291H61.6036C61.5359 4.88291 61.502 4.81413 61.502 4.74536L61.773 3.71376C61.773 3.67938 61.8407 3.64499 61.8746 3.64499H72.7459C72.7798 3.64499 72.8475 3.67938 72.8475 3.71376L73.1184 4.74536C73.1523 4.81413 73.0846 4.88291 73.0168 4.88291H68.0045C67.9368 4.88291 67.9029 4.91729 67.9029 4.98607V9.35317V32.289C67.9029 32.3578 67.9368 32.3922 68.0045 32.3922H73.0168C73.0846 32.3922 73.1184 32.461 73.1184 32.5297L72.8475 33.5613C72.8475 33.5957 72.7798 33.6301 72.7459 33.6301H61.8746C61.8407 33.6301 61.773 33.5957 61.773 33.5613L61.502 32.5297C61.4682 32.461 61.5359 32.3922 61.6036 32.3922H66.616C66.6837 32.3922 66.7176 32.3578 66.7176 32.289V22.3857V4.98607C66.7176 4.91729 66.6837 4.88291 66.616 4.88291Z" fill="#F53C5A"/>
<path d="M105.902 7.42752H113.759C113.928 7.42752 114.064 7.56506 114.064 7.737V35.8653C114.064 36.0372 114.199 36.1747 114.369 36.1747H120.228C120.397 36.1747 120.532 36.0372 120.532 35.8653V7.737C120.532 7.56506 120.668 7.42752 120.837 7.42752H128.694C128.898 7.42752 129.033 7.2212 128.999 7.04926L127.34 1.34109C127.306 1.20354 127.17 1.13477 127.035 1.13477H107.595C107.46 1.13477 107.358 1.23793 107.29 1.34109L105.631 7.04926C105.563 7.2212 105.699 7.42752 105.902 7.42752ZM109.492 3.71376C109.492 3.67938 109.559 3.64499 109.593 3.64499H124.969C125.003 3.64499 125.071 3.67938 125.071 3.71376L125.342 4.74536C125.375 4.81413 125.308 4.88291 125.24 4.88291H117.959C117.891 4.88291 117.857 4.91729 117.857 4.98607V33.5613C117.857 33.6301 117.823 33.6645 117.755 33.6645H116.773C116.705 33.6645 116.672 33.6301 116.672 33.5613V4.98607C116.672 4.91729 116.638 4.88291 116.57 4.88291H109.289C109.221 4.88291 109.187 4.81413 109.187 4.74536L109.492 3.71376Z" fill="#F53C5A"/>
<path d="M91.9152 37C98.6209 37 102.956 32.6329 102.956 26.2714C102.956 14.0985 88.3253 16.2993 88.3253 9.69703C88.3253 7.08364 89.7477 5.81134 91.9152 5.81134C94.1843 5.81134 96.4195 6.671 97.7065 8.39033C97.8081 8.56227 98.0452 8.56227 98.1806 8.39033L101.364 4.53903C101.466 4.40149 101.466 4.22955 101.364 4.12639C98.9596 1.37546 96.1147 0 91.9152 0C86.598 0 82.0937 3.61059 82.0937 9.73141C82.0937 21.1822 96.4873 19.7035 96.4873 26.3058C96.4873 29.2286 94.3198 30.6729 91.9152 30.6729C88.2237 30.6729 86.361 28.9191 84.9386 27.0967C84.8031 26.9591 84.5999 26.9247 84.4644 27.0623L80.6036 31.0167C80.4681 31.1543 80.4681 31.3262 80.6036 31.4638C83.4145 34.6961 86.4287 37 91.9152 37ZM83.7871 31.2574L84.4305 30.6041C84.4644 30.5697 84.5321 30.5697 84.566 30.6041C84.5999 30.6041 84.5999 30.6385 84.6337 30.6385C87.6479 33.1143 90.7298 33.5957 92.5925 33.3894C94.9632 33.1143 96.7582 31.9796 97.6049 31.0855C99.0612 29.4693 99.7724 26.0307 98.2822 23.2454C96.8598 20.5288 93.4731 19.2909 93.4392 19.2565H93.4053C88.5962 17.1245 86.2255 15.2677 85.2095 12.9294C84.4983 11.2788 84.4983 8.25279 85.853 5.88011C86.9367 3.95446 88.6978 2.8197 90.933 2.579C94.0827 2.23513 96.4873 3.3355 97.9097 4.29833C97.9097 4.29833 97.9436 4.29833 97.9436 4.33271C97.9774 4.3671 98.0113 4.43587 97.9774 4.47026L97.4017 5.19238C97.3678 5.22677 97.3001 5.22677 97.2662 5.22677C97.2323 5.22677 97.2323 5.19238 97.1985 5.19238C95.3358 3.98885 93.2699 3.47305 91.0685 3.71375C89.1719 3.92007 87.7495 4.84851 86.8351 6.46468C85.7175 8.45911 85.6498 11.1069 86.2594 12.5167C86.9028 14.0297 88.2914 15.7491 93.8456 18.2593C94.2182 18.3968 97.7065 19.7723 99.2982 22.7639C101.025 26.0307 100.213 29.9851 98.4516 31.9108C97.3001 33.1831 94.7262 34.6617 91.5426 34.6617C89.2735 34.6617 86.3948 33.802 83.8548 31.4981C83.8548 31.4981 83.8548 31.4981 83.8209 31.4638C83.7193 31.3606 83.7532 31.2918 83.7871 31.2574Z" fill="#F53C5A"/>
</g>
<defs>
<clipPath id="clip0">
<rect width="129" height="37" fill="white"/>
</clipPath>
</defs>
</svg>
